<?xml version="1.0" encoding="UTF-8"?>
<svg xmlns="http://www.w3.org/2000/svg" xmlns:xlink="http://www.w3.org/1999/xlink" width="100pt" height="100pt" viewBox="0 0 100 100" version="1.1">
<g id="surface692050">
<path style="fill-rule:nonzero;fill:rgb(94.509804%,76.862745%,5.882353%);fill-opacity:1;stroke-width:10;stroke-linecap:butt;stroke-linejoin:round;stroke:rgb(97.647059%,64.313725%,0.392157%);stroke-opacity:1;stroke-miterlimit:10;" d="M 153.675724 13.559189 C 186.076233 13.559189 212.440811 39.923767 212.440811 72.324276 L 212.440811 153.675724 C 212.440811 186.076233 186.076233 212.440811 153.675724 212.440811 L 72.324276 212.440811 C 39.923767 212.440811 13.559189 186.076233 13.559189 153.675724 L 13.559189 72.324276 C 13.559189 39.923767 39.923767 13.559189 72.324276 13.559189 Z M 22.599263 72.324276 L 22.599263 153.675724 C 22.599263 181.192197 44.807803 203.400737 72.324276 203.400737 L 153.675724 203.400737 C 181.192197 203.400737 203.400737 181.192197 203.400737 153.675724 L 203.400737 72.324276 C 203.400737 44.807803 181.192197 22.599263 153.675724 22.599263 L 72.324276 22.599263 C 44.807803 22.599263 22.599263 44.807803 22.599263 72.324276 Z M 176.280516 58.759558 C 176.280516 63.754175 172.23506 67.799631 167.240442 67.799631 C 162.245825 67.799631 158.200369 63.754175 158.200369 58.759558 C 158.200369 53.76494 162.245825 49.719484 167.240442 49.719484 C 172.23506 49.719484 176.280516 53.76494 176.280516 58.759558 Z M 162.715798 113 C 162.715798 140.405891 140.405891 162.715798 113 162.715798 C 85.594109 162.715798 63.284202 140.405891 63.284202 113 C 63.284202 85.594109 85.594109 63.284202 113 63.284202 C 140.405891 63.284202 162.715798 85.594109 162.715798 113 Z M 72.324276 113 C 72.324276 135.521855 90.478145 153.675724 113 153.675724 C 135.521855 153.675724 153.675724 135.521855 153.675724 113 C 153.675724 90.478145 135.521855 72.324276 113 72.324276 C 90.478145 72.324276 72.324276 90.478145 72.324276 113 Z M 72.324276 113 " transform="matrix(0.423894,0,0,0.423894,2.1,2.1)"/>
<path style=" stroke:none;fill-rule:nonzero;fill:rgb(97.647059%,64.313725%,0.392157%);fill-opacity:1;" d="M 32.757812 7.847656 C 19.023438 7.847656 7.847656 19.023438 7.847656 32.757812 L 7.847656 67.242188 C 7.847656 80.976562 19.023438 92.152344 32.757812 92.152344 L 67.242188 92.152344 C 80.976562 92.152344 92.152344 80.976562 92.152344 67.242188 L 92.152344 32.757812 C 92.152344 19.023438 80.976562 7.847656 67.242188 7.847656 Z M 32.757812 11.679688 L 67.242188 11.679688 C 78.90625 11.679688 88.320312 21.09375 88.320312 32.757812 L 88.320312 67.242188 C 88.320312 78.90625 78.90625 88.320312 67.242188 88.320312 L 32.757812 88.320312 C 21.09375 88.320312 11.679688 78.90625 11.679688 67.242188 L 11.679688 32.757812 C 11.679688 21.09375 21.09375 11.679688 32.757812 11.679688 Z M 72.992188 23.175781 C 70.875 23.175781 69.160156 24.890625 69.160156 27.007812 C 69.160156 29.125 70.875 30.839844 72.992188 30.839844 C 75.109375 30.839844 76.824219 29.125 76.824219 27.007812 C 76.824219 24.890625 75.109375 23.175781 72.992188 23.175781 Z M 50 28.925781 C 38.382812 28.925781 28.925781 38.382812 28.925781 50 C 28.925781 61.617188 38.382812 71.074219 50 71.074219 C 61.617188 71.074219 71.074219 61.617188 71.074219 50 C 71.074219 38.382812 61.617188 28.925781 50 28.925781 Z M 50 32.757812 C 59.546875 32.757812 67.242188 40.453125 67.242188 50 C 67.242188 59.546875 59.546875 67.242188 50 67.242188 C 40.453125 67.242188 32.757812 59.546875 32.757812 50 C 32.757812 40.453125 40.453125 32.757812 50 32.757812 Z M 50 32.757812 "/>
</g>
</svg>
