<?xml version="1.0" encoding="UTF-8" standalone="no"?>
<svg
   xmlns:dc="http://purl.org/dc/elements/1.1/"
   xmlns:cc="http://creativecommons.org/ns#"
   xmlns:rdf="http://www.w3.org/1999/02/22-rdf-syntax-ns#"
   xmlns:svg="http://www.w3.org/2000/svg"
   xmlns="http://www.w3.org/2000/svg"
   viewBox="0 0 1190.5511 841.88977"
   id="svg2"
   height="841.88977"
   width="1190.5511"
   version="1.1">
  <metadata
     id="metadata78">
    <rdf:RDF>
      <cc:Work
         rdf:about="">
        <dc:format>image/svg+xml</dc:format>
        <dc:type
           rdf:resource="http://purl.org/dc/dcmitype/StillImage" />
      </cc:Work>
    </rdf:RDF>
  </metadata>
  <defs
     id="defs76" />
  <g
     id="g4">
    <path
       id="path6"
       style="fill:#fff8b2;fill-rule:evenodd"
       d="M 595.4262,155.7337 A 256.9882,256.9882 0 0 1 852.4144,412.7219 256.9882,256.9882 0 1 1 595.4262,155.7337 Z" />
    <path
       id="path8"
       style="fill:#ffffff;fill-rule:evenodd"
       d="m 528.6087,519.1089 c 10.5826,4.8017 21.9744,7.5496 33.4207,9.3382 16.9617,2.5637 34.2366,2.9787 51.3142,1.4689 15.7649,-1.5032 31.6386,-4.4342 46.1183,-11.0721 -2.4486,7.9163 -4.7812,15.8805 -7.3111,23.7767 -2.1765,2.1354 -5.3051,2.9109 -8.1207,3.8492 -10.5279,2.9041 -21.4778,3.8358 -32.3459,4.4955 -20.0021,0.9181 -40.1879,0.4898 -59.9584,-2.9243 -5.6789,-1.2106 -11.732,-2.1764 -16.5949,-5.5567 -2.4755,-7.6785 -4.2913,-15.6016 -6.5222,-23.3754 z" />
    <path
       id="path10"
       style="fill:#c90015;fill-rule:evenodd"
       d="m 559.0981,514.8516 c 8.3722,-2.3873 16.6422,-5.2914 25.2865,-6.5154 5.1823,-0.7685 10.4397,-0.7144 15.6628,-0.5511 10.1883,0.4694 19.8933,3.8426 29.5983,6.6651 -13.7926,4.788 -28.5781,6.1549 -43.0986,5.4204 -9.3038,-0.5508 -18.6077,-2.0197 -27.449,-5.019 z" />
    <path
       id="path12"
       style="fill:#f8a600;fill-rule:evenodd"
       d="m 726.2759,479.1798 c 5.2231,-3.7065 9.9159,-8.1272 14.0375,-13.0172 7.2839,20.7434 12.8675,42.2892 14.085,64.3246 1.0202,18.1794 -1.3059,36.7124 -8.1272,53.6675 -6.1892,15.5951 -16.0302,29.5713 -27.8643,41.3983 0.51,-10.8272 -1.027,-21.5867 -2.1081,-32.3325 -7.9438,10.7322 -15.8196,21.5458 -24.8241,31.4348 -16.4452,18.3495 -35.7058,34.3998 -57.6258,45.7985 0.9317,-17.9141 -2.5503,-35.6854 -7.4404,-52.8375 -6.0191,5.4541 -12.1399,10.8884 -16.9892,17.4515 -12.4392,16.2544 -18.9547,36.2432 -22.0833,56.2722 -13.602,-16.3564 -24.4567,-34.8488 -33.3728,-54.123 -2.9787,-6.495 -5.8354,-13.0377 -8.7667,-19.5463 -1.9177,10.3578 -4.4207,20.6413 -5.3728,31.1488 -0.6937,7.1413 -0.8025,14.33 -0.3603,21.4917 -19.2064,-10.1475 -36.5289,-23.559 -52.1646,-38.5622 -6.3453,-6.0395 -12.2896,-12.4736 -18.3427,-18.7847 -0.4487,6.1073 -1.2988,12.2009 -1.2852,18.3357 -6.1552,-5.8286 -11.1061,-12.8744 -15.4862,-20.111 -12.0583,-20.3012 -16.4041,-44.3636 -15.6629,-67.7526 0.8297,-25.776 6.6447,-51.1917 14.745,-75.594 3.9648,4.6791 8.8004,8.5014 13.5952,12.2624 10.7048,19.1857 30.6664,32.0468 51.9469,36.413 2.5571,9.4195 5.1211,18.8459 7.6853,28.2654 0.9179,4.0195 4.3458,6.8216 7.8823,8.583 5.8558,2.8905 12.31,4.2644 18.6962,5.4408 12.3848,2.122 24.9531,2.9517 37.508,3.2307 13.8745,0.2378 27.7895,-0.2109 41.5616,-1.9724 7.2363,-0.9862 14.5134,-2.2172 21.3622,-4.8288 4.5161,-1.7614 9.3787,-4.5091 10.9159,-9.4331 2.9177,-9.5964 5.917,-19.1656 8.7528,-28.789 9.6441,-1.993 19.0908,-5.2166 27.5718,-10.2699 10.0451,-5.9031 18.8254,-14.0984 24.9191,-24.0622 0.7891,-1.2174 1.3331,-2.6932 2.6118,-3.5025 z" />
    <path
       id="path14"
       style="fill:#f07c00;fill-rule:evenodd"
       d="m 716.8728,598.6602 c -0.1961,-1.8136 -0.3917,-3.627 -0.574,-5.4397 -7.9438,10.7322 -15.8196,21.5458 -24.8241,31.4348 -13.5689,15.1401 -29.0546,28.7149 -46.3694,39.403 1.8858,-28.1084 -3.7976,-54.648 -15.4905,-79.943 14.1003,12.0042 25.9407,25.3383 33.0664,41.4471 31.3852,-19.9968 55.8978,-46.6694 78.3989,-75.2956 -6.3303,16.8024 -14.2466,32.9927 -24.2073,48.3934 z m -170.9884,20.5421 -0.6879,-1.5316 c -1.9177,10.3578 -4.4207,20.6413 -5.3728,31.1488 -0.6937,7.1413 -0.8025,14.33 -0.3603,21.4917 -8.1011,-4.2803 -15.8672,-9.1412 -23.313,-14.4572 -34.556,-31.1681 -56.3233,-67.5964 -70.3346,-107.2149 22.5014,30.496 47.014,58.9102 78.3992,80.2132 7.126,-17.161 18.9658,-31.366 33.0667,-44.1539 -4.8866,11.2612 -8.7233,22.7545 -11.3973,34.5039 z" />
    <path
       id="path16"
       style="fill:#f8a600;fill-rule:evenodd"
       d="m 467.5689,448.2485 c 8.1612,8.8344 17.9685,16.1186 28.7617,21.4098 6.1075,2.9449 12.2148,5.8626 18.3359,8.78 -4.8492,-7.7666 -10.3241,-15.1662 -14.6495,-23.2393 10.6912,5.6928 22.6815,8.0663 34.4815,10.2084 9.9978,1.8502 19.9749,4.1352 29.4217,7.9711 2.897,7.2705 9.1471,12.8471 16.3292,15.724 11.086,4.4887 24.5384,3.149 34.1892,-4.0396 3.7202,-2.6728 6.5291,-6.3726 8.6783,-10.372 11.215,-5.0598 23.3413,-7.6306 35.386,-9.8274 10.9633,-1.9792 21.9946,-4.5159 31.8836,-9.8207 -4.6452,8.0048 -9.9976,15.5744 -14.942,23.3955 10.5826,-5.2707 21.7227,-9.6233 31.4209,-16.4993 5.7132,-3.9719 10.9363,-8.61 15.6835,-13.684 0.1358,13.3509 -4.8356,26.6403 -13.752,36.5834 -5.4884,6.5766 -13.7313,10.9088 -22.3551,11.1061 -8.481,0.2177 -17.377,-2.9041 -22.9607,-9.4808 -2.8156,2.1833 -5.6378,4.3594 -8.4469,6.5563 2.9177,3.666 6.6855,6.5699 10.7867,8.8075 -2.3803,2.3327 -5.1007,4.3186 -8.0728,5.8286 -18.7986,1.3193 -35.767,-8.8687 -54.2183,-10.3512 -8.4266,-0.6327 -16.9758,-0.4899 -25.2799,1.2174 -12.106,2.3599 -23.5795,7.4605 -35.9028,8.8209 -4.2645,0.4354 -8.6037,0.6732 -12.8611,0.1565 -2.4347,-1.2311 -4.6859,-2.8293 -6.7263,-4.6316 0.0136,-0.0748 0.0408,-0.2177 0.0544,-0.2925 4.6454,-2.3533 8.9705,-5.4476 12.2216,-9.5556 -2.8157,-2.1969 -5.6381,-4.373 -8.4538,-6.5494 -5.2911,6.2433 -13.6156,9.3583 -21.6748,9.4875 -8.7262,0.1701 -17.3225,-3.8698 -23.0015,-10.4533 -9.2698,-10.025 -14.5,-23.5999 -14.3367,-37.2563 z" />
    <path
       id="path18"
       style="fill:#ffffff;fill-rule:evenodd"
       d="m 582.317,406.1903 c 3.5501,1.4283 7.0869,2.9041 10.6438,4.3324 0.8365,0.51 1.6866,-0.2109 2.4891,-0.4286 3.2307,-1.3331 6.4814,-2.6319 9.7257,-3.931 0.0133,14.9762 -0.0139,29.959 0.0133,44.9418 3.877,2.4007 7.5971,5.6858 8.8143,10.2561 1.5033,5.0397 -0.6596,10.5415 -4.5158,13.9218 -8.4878,7.5492 -22.6001,7.624 -31.2103,0.2381 -3.9243,-3.3055 -6.2501,-8.7531 -4.8697,-13.8402 1.1359,-4.6658 4.8425,-8.1275 8.8416,-10.4876 0.1564,-15.0029 0.0204,-30.0061 0.068,-45.0028 z" />
    <path
       id="path20"
       style="fill:#ffffff;fill-rule:evenodd"
       d="m 663.6784,392.1052 c 21.2468,-1.3056 42.7859,0.1225 63.4272,5.5088 -1.2651,13.582 -6.529,26.2866 -10.5758,39.1882 -0.483,1.292 -0.5984,2.8088 -1.5845,3.8627 -3.6457,4.0332 -7.733,7.6448 -12.0311,10.9636 1.0879,-5.6109 -1.2923,-10.9225 -2.8973,-16.1595 -5.1486,3.8699 -10.2016,7.9643 -16.037,10.7935 -10.2631,5.2506 -21.7908,6.9574 -32.9854,9.127 -8.7871,1.673 -17.5127,3.8018 -25.9055,6.9236 -0.6664,-6.597 -4.3934,-12.4052 -9.161,-16.8122 -0.1021,-11.3171 -0.0134,-22.6409 -0.0409,-33.9648 8.032,-1.7138 16.479,-1.5508 24.382,0.7549 8.7327,2.4823 16.6357,7.2706 23.6474,12.956 2.2581,-2.7612 4.5091,-5.5292 6.7672,-8.2905 -5.1758,-4.2165 -10.7731,-7.9506 -16.7851,-10.8683 0.5916,-1.4621 1.2036,-2.9174 1.8227,-4.3662 13.0581,1.4896 25.4497,6.6855 36.3994,13.8269 1.9519,-2.9858 3.8971,-5.9783 5.8422,-8.9709 -10.4329,-6.8283 -22.0425,-11.9562 -34.2845,-14.4728 z" />
    <path
       id="path22"
       style="fill:#ffffff;fill-rule:evenodd"
       d="m 462.9917,397.3354 c 19.2677,-3.6726 38.9297,-5.5837 58.5573,-4.9649 -10.902,2.5438 -21.2462,7.189 -30.6048,13.303 1.9247,3.0062 3.8903,5.9919 5.8422,8.9841 10.7592,-7.039 23.0559,-12.0447 35.9439,-13.1533 0.4147,0.9862 0.8297,1.9656 1.258,2.9585 -6.2569,2.8837 -12.0719,6.6515 -17.4039,11.0041 2.251,2.7681 4.5091,5.5296 6.7672,8.2908 7.3247,-5.9374 15.724,-10.8411 25.0211,-12.854 7.6581,-1.7345 15.6968,-1.2447 23.2461,0.8226 -0.0272,11.2969 0,22.6004 -0.0202,33.897 -4.7199,4.0261 -8.1343,9.6301 -9.0864,15.7989 -12.2284,-4.3801 -25.13,-6.196 -37.787,-8.8688 -7.3791,-1.6049 -14.663,-3.9378 -21.2397,-7.6986 -5.1891,-2.8703 -9.7257,-6.7198 -14.4864,-10.2087 -0.7617,5.7402 -2.4143,11.528 -1.2921,17.343 -4.278,-3.2103 -8.3041,-6.7536 -11.9497,-10.6642 -0.5372,-0.6257 -1.2036,-1.2039 -1.4009,-2.02 -4.1624,-13.8742 -10.0859,-27.4014 -11.3647,-41.9695 z" />
    <path
       id="path24"
       style="fill:#f07c00;fill-rule:evenodd"
       d="m 738.1165,389.0514 c 6.2365,11.0929 9.1545,24.0761 7.9098,36.7671 -1.1018,12.0447 -5.9443,23.6608 -13.5615,33.0398 1.6934,-10.1608 0.381,-20.4852 -1.7887,-30.4623 4.1553,-12.7046 7.8755,-25.8375 7.4404,-39.3446 z" />
    <path
       id="path26"
       style="fill:#f07c00;fill-rule:evenodd"
       d="m 444.0234,425.1586 c -1.0882,-12.4869 1.8499,-25.2116 7.9708,-36.1205 -0.4351,13.5136 3.2714,26.6604 7.4474,39.3579 -2.1832,9.9635 -3.4752,20.274 -1.809,30.4348 -7.7602,-9.5349 -12.6162,-21.4098 -13.6092,-33.6722 z" />
    <path
       id="path28"
       style="fill:#f8a600;fill-rule:evenodd"
       d="m 746.5226,382.1689 c 17.3906,9.7529 32.0537,23.4774 46.4449,37.1001 16.4245,15.6493 33.2095,31.2648 52.831,42.8741 -27.6055,0.5649 -47.742,-15.0506 -71.4527,-27.5715 12.5416,11.0106 25.1847,21.9061 37.6577,32.9919 16.3364,14.9218 26.3883,35.8486 29.7278,57.5713 -7.8894,-8.7191 -16.5946,-16.7102 -26.0141,-23.7631 -8.2837,-6.2637 -17.2409,-11.5344 -25.96,-17.1453 3.5569,9.1743 7.4744,18.2199 10.5418,27.5782 9.127,27.3337 12.2964,56.6805 8.6579,85.2928 -1.1563,9.2563 -2.9178,18.4445 -5.3595,27.449 -2.1422,-6.3793 -3.7335,-12.99 -6.3114,-19.2336 -4.0532,-10.9157 -10.0043,-20.9472 -15.7989,-30.9926 -3.0605,11.3241 -5.9918,22.7772 -11.1265,33.3799 -7.3587,15.8193 -17.6083,30.1221 -28.9726,43.2822 4.1215,-15.69 7.3655,-31.6117 9.7254,-47.662 0.4354,-2.2785 0.3061,-4.7338 1.3807,-6.842 6.2909,-12.7519 10.2084,-26.6264 11.8542,-40.7386 3.5025,-29.9929 -2.8429,-60.1422 -12.3029,-88.496 -0.8569,-5.2299 -1.4148,-10.5074 -2.1563,-15.7445 3.9449,-8.7392 6.6106,-18.1247 7.0256,-27.7415 0.7957,-14.5001 -3.0058,-29.1155 -10.3921,-41.5888 z" />
    <path
       id="path30"
       style="fill:#f8a600;fill-rule:evenodd"
       d="m 392.8859,423.2951 c 15.8193,-14.9216 31.564,-30.4075 50.6888,-41.099 -11.9222,19.7912 -13.949,45.3223 -4.5023,66.5079 0.5032,1.2515 1.4417,2.503 1.0336,3.9311 -1.2651,8.2701 -2.1286,16.6014 -3.1491,24.8987 -8.0183,28.381 -13.3639,58.068 -10.358,87.6254 1.5916,16.3567 6.264,32.3733 13.7384,47.0024 2.3057,13.0243 4.9784,26.0008 8.3789,38.7935 -13.5408,-15.6152 -25.4633,-32.9649 -32.8221,-52.3888 -3.0606,-7.8826 -4.9717,-16.1322 -7.2703,-24.2526 -5.6585,9.8342 -11.5007,19.6347 -15.5202,30.285 -2.6252,6.6518 -4.7472,13.5003 -6.4883,20.4376 -7.1478,-26.5108 -8.9501,-54.5177 -4.543,-81.654 2.3394,-14.6769 6.3929,-29.0611 11.8272,-42.8879 2.1354,-5.4272 4.3118,-10.8411 6.4539,-16.268 -8.5963,5.5289 -17.4242,10.7319 -25.6059,16.8868 -9.5488,7.1141 -18.3767,15.1872 -26.3678,24.0216 1.9315,-11.7592 5.5224,-23.3073 11.2422,-33.7878 5.3251,-9.8481 12.5141,-18.6554 20.9406,-26.0076 11.725,-10.2489 23.4431,-20.4917 35.1615,-30.7341 -23.7438,12.4977 -43.7482,28.1058 -71.4183,27.5378 17.9209,-10.6166 33.5364,-24.5588 48.5802,-38.848 z" />
    <path
       id="path32"
       style="fill:#f07c00;fill-rule:evenodd"
       d="m 392.8859,423.2951 c 15.8193,-14.9216 31.564,-30.4075 50.6888,-41.099 -11.9222,19.7912 -13.949,45.3223 -4.5023,66.5079 0.5032,1.2515 1.4417,2.503 1.0336,3.9311 -1.2651,8.2701 -2.1286,16.6014 -3.1491,24.8987 -8.0183,28.381 -13.3639,58.068 -10.358,87.6254 1.5916,16.3567 6.264,32.3733 13.7384,47.0024 0.1182,0.667 0.2375,1.3337 0.3574,2.0007 -16.7904,-21.8495 -27.0116,-48.3356 -28.4462,-81.0236 -7.9387,7.8818 -14.148,18.6475 -18.6259,32.2986 -1.1838,-38.7822 8.4878,-76.9584 27.1902,-111.1717 -17.0289,6.0531 -30.6556,18.4663 -45.1931,32.8895 2.9053,-9.6528 6.952,-19.0085 11.6961,-27.7188 l 28.4082,-24.831 c -6.9346,3.6502 -13.5504,7.5651 -20.1313,11.2655 9.4833,-13.9541 20.3955,-25.3001 30.3054,-32.1086 -10.5134,0.8688 -25.0871,8.8469 -40.606,16.6493 2.5526,-2.3534 5.0811,-4.7299 7.5938,-7.1164 z" />
    <path
       id="path34"
       style="fill:#ffffff;fill-rule:evenodd"
       d="m 464.5831,386.1405 c 0.2585,-3.8491 0.51,-7.6918 0.7753,-11.5412 64.1752,6.8284 128.8808,8.2159 193.3279,5.1349 21.9745,-1.0814 43.9285,-2.7476 65.8009,-5.1077 0.2109,3.8154 0.4216,7.6377 0.6257,11.4599 -25.96,-5.9443 -53.028,-6.5427 -79.3622,-2.8497 -17.8529,2.5844 -35.515,7.2159 -51.8853,14.8876 -23.4437,-11.8474 -49.961,-16.2343 -76.0295,-16.5742 -17.8461,-0.2109 -35.6922,1.4485 -53.2528,4.5904 z" />
    <path
       id="path36"
       style="fill:#d9dadb;fill-rule:evenodd"
       d="m 458.7885,350.231 c 0.3198,-4.9785 2.9449,-9.5488 6.4678,-12.9765 31.2716,0.0544 62.5499,-0.007 93.8214,0.034 0.0814,2.0948 0.1837,4.1964 0.279,6.2978 11.861,8.8959 23.7968,17.6964 35.617,26.6397 11.9906,-8.7937 23.8516,-17.7642 35.7809,-26.6397 0.0881,-2.1084 0.1766,-4.21 0.2922,-6.3185 31.2512,-0.007 62.502,0.0548 93.7599,-0.0269 3.7542,3.5569 6.4273,8.4742 6.5563,13.7245 0.17,4.4754 -1.469,8.8075 -3.822,12.5413 -63.7129,7.0594 -127.9834,8.5695 -192.0019,5.7062 -24.3751,-1.1427 -48.723,-2.9653 -72.976,-5.7062 -2.4822,-3.9378 -4.1621,-8.5626 -3.7746,-13.2757 z" />
    <path
       id="path38"
       style="fill:#d9dadb;fill-rule:evenodd"
       d="m 681.2527,260.5178 c -0.4763,-4.0198 4.3594,-7.4815 8.0659,-5.72 0.8297,12.623 4.7404,25.2119 12.3101,35.4475 7.1206,9.807 17.2272,17.1116 28.2109,22.0422 1.1767,4.7404 -1.9791,10.9704 -7.2975,10.8545 -16.2071,-7.1204 -30.4962,-19.9747 -36.5967,-36.9026 -3.1014,-8.202 -4.4546,-16.9824 -4.6927,-25.7216 z" />
    <path
       id="path40"
       style="fill:#d9dadb;fill-rule:evenodd"
       d="m 495.9771,254.8661 c 3.2848,-1.6869 7.3043,0.8569 8.0864,4.1961 -0.0408,12.7724 -2.7272,25.7967 -9.3175,36.8621 -7.2703,12.3505 -19.1112,21.471 -32.0604,27.2653 -5.2979,-0.095 -8.3245,-6.1345 -7.2091,-10.8817 10.3853,-4.706 20.0223,-11.4531 27.0547,-20.5188 8.2701,-10.4806 12.6434,-23.6812 13.4459,-36.923 z" />
    <path
       id="path42"
       style="fill:#f8a600;fill-rule:evenodd"
       d="m 474.5129,252.6557 c 3.38,2.0403 6.8485,3.9376 10.3989,5.6721 -1.2787,10.0383 -5.0125,19.8862 -11.5075,27.7279 -5.0057,6.0939 -11.3987,11.0109 -18.4377,14.5273 -5.4411,-3.6865 -10.8003,-7.5084 -15.8196,-11.7524 15.772,-7.0867 28.8232,-20.1039 35.3659,-36.1749 z m -70.5546,-28.1841 c -0.1429,-14.2072 4.5431,-28.1222 11.9018,-40.1604 5.8694,7.5833 15.2209,11.9089 24.7085,12.4053 -0.8093,13.4935 3.8018,27.0615 12.3372,37.4944 -4.3118,10.8207 -11.9429,20.3082 -21.7568,26.6264 -3.8902,2.5503 -8.0659,4.6451 -12.378,6.3864 -8.9297,-12.4052 -14.7991,-27.3407 -14.8127,-42.7521 z" />
    <path
       id="path44"
       style="fill:#d9dadb;fill-rule:evenodd"
       d="m 460.8901,242.6173 c 1.4965,1.3057 3.0266,2.5776 4.5839,3.8223 -3.6589,9.6301 -9.7596,18.3829 -17.8869,24.7626 -5.1618,4.1011 -11.0108,7.2907 -17.1456,9.6984 -1.5914,-1.6392 -3.1691,-3.2918 -4.6925,-4.9921 15.1393,-6.529 28.0749,-18.3087 35.1411,-33.2912 z" />
    <path
       id="path46"
       style="fill:#c90015;fill-rule:evenodd"
       d="m 624.5382,237.2715 c 16.7238,5.7129 32.04,14.9624 46.057,25.6198 0.6188,12.8199 3.5436,25.7011 9.8819,36.9433 6.0871,10.984 15.2821,20.0498 25.8579,26.7353 -25.0143,-0.007 -50.0289,0 -75.0433,-0.007 0.2926,-29.8908 -2.5843,-59.7203 -6.7535,-89.2916 z" />
    <path
       id="path48"
       style="fill:#c90015;fill-rule:evenodd"
       d="m 514.4964,266.8765 c 15.3434,-12.4186 32.3325,-23.1712 51.0764,-29.605 -4.176,29.5713 -7.0458,59.4008 -6.7536,89.2916 -26.606,0.007 -53.2185,0 -79.8245,0.007 10.2697,-6.5018 19.247,-15.2209 25.3205,-25.8032 6.0327,-10.2904 9.1066,-22.0697 10.1812,-33.8902 z" />
    <path
       id="path50"
       style="fill:#f8a600;fill-rule:evenodd"
       d="m 700.418,258.3343 c 12.2082,-5.9848 23.8107,-13.8059 32.3393,-24.5313 5.1687,7.6578 12.1604,14.1732 20.4917,18.254 6.0327,3.0197 12.6433,4.754 19.3286,5.5428 -9.7526,17.9414 -25.4157,31.8566 -42.262,42.99 -8.8821,-4.5227 -16.8123,-11.181 -22.0967,-19.696 -4.2777,-6.8011 -6.7603,-14.6222 -7.8009,-22.5595 z" />
    <path
       id="path52"
       style="fill:#f07c00;fill-rule:evenodd"
       d="m 700.418,258.3343 c 12.2082,-5.9848 23.8107,-13.8059 32.3393,-24.5313 4.3625,6.4633 10.0236,12.113 16.693,16.1716 -9.8459,14.3779 -23.1874,25.4923 -38.7462,34.5371 -0.8816,-1.1656 -1.7119,-2.3718 -2.4852,-3.6179 -4.2777,-6.8011 -6.7603,-14.6222 -7.8009,-22.5595 z" />
    <path
       id="path54"
       style="fill:#ffffff;fill-rule:evenodd"
       d="m 585.4045,317.579 c 3.2987,2.7272 6.6042,5.4612 9.9094,8.1884 3.3054,-2.7272 6.6106,-5.4612 9.9093,-8.1952 -3.2987,-2.7343 -6.6039,-5.4613 -9.9093,-8.1888 -3.312,2.7207 -6.6107,5.4545 -9.9094,8.1956 z" />
    <path
       id="path56"
       style="fill:#ffffff;fill-rule:evenodd"
       d="m 585.4045,279.9213 c 3.2919,2.7408 6.6042,5.468 9.9094,8.1952 3.3054,-2.734 6.6174,-5.4544 9.9093,-8.202 -3.3055,-2.7205 -6.6039,-5.4613 -9.9093,-8.1817 -3.3052,2.7272 -6.6039,5.4612 -9.9094,8.1885 z" />
    <path
       id="path58"
       style="fill:#ffffff;fill-rule:evenodd"
       d="m 585.4045,249.2824 c 3.3055,2.7204 6.6042,5.4545 9.9094,8.1817 3.3054,-2.7204 6.597,-5.4681 9.9093,-8.1817 -3.2919,-2.7476 -6.6039,-5.4683 -9.9093,-8.2023 -3.3052,2.7272 -6.6175,5.4547 -9.9094,8.2023 z" />
    <path
       id="path60"
       style="fill:#d9dadb;fill-rule:evenodd"
       d="m 578.175,225.4105 c 11.2558,-0.007 22.5119,-0.0205 33.7675,0.007 5.7469,37.2155 9.8209,74.88 8.3588,112.5853 -8.3861,6.3249 -16.833,12.5614 -25.2324,18.8663 -8.4265,-6.3114 -16.9276,-12.5278 -25.2864,-18.9343 -1.3941,-37.685 2.6184,-75.3291 8.3925,-112.5241 z" />
    <path
       id="path62"
       style="fill:#d9dadb;fill-rule:evenodd"
       d="m 422.3483,174.8988 c 9.0046,-11.6504 20.1382,-21.5187 32.1625,-29.9591 1.5913,1.9995 3.1898,3.9923 4.7744,5.9919 -7.9098,10.4873 -14.2688,22.3211 -17.2681,35.1751 -7.9163,-0.1698 -15.7445,-4.1893 -19.6688,-11.2079 z" />
    <path
       id="path64"
       style="fill:#d9dadb;fill-rule:evenodd"
       d="m 730.819,144.9397 c 18.6145,13.0989 35.5833,29.8638 44.663,51.0695 6.9981,16.0574 7.9163,34.7672 1.7475,51.2397 -9.9703,-0.5103 -20.0562,-3.6998 -27.6327,-10.3853 -4.2573,-3.6726 -7.6921,-8.2092 -10.4329,-13.0989 5.169,-10.2289 6.7672,-22.1038 4.9173,-33.3868 -2.2918,-14.4932 -9.3039,-27.8164 -18.0366,-39.4463 1.5846,-1.9996 3.1759,-3.9992 4.7744,-5.9919 z" />
    <path
       id="path66"
       style="fill:#62130e;fill-rule:evenodd"
       d="m 407.0256,178.2516 c 12.2213,-19.7912 30.2715,-35.2366 49.6752,-47.7031 5.4749,6.7535 10.8408,13.5955 16.2681,20.3831 -9.7799,11.6299 -18.2949,25.0214 -20.9949,40.2012 -1.9247,10.4057 -0.2245,21.5189 5.2844,30.6051 6.8624,11.4936 18.0842,19.6007 29.7887,25.6671 4.2577,-2.5911 9.3243,-4.5839 14.3776,-3.4888 5.4272,1.0746 9.8683,5.087 12.2624,9.9705 16.1799,-12.2286 34.0532,-22.6819 53.6267,-28.3609 0.5647,-3.6113 1.1426,-7.2158 1.7138,-10.8272 17.3498,-0.0136 34.6992,-0.0136 52.0487,0 0.5782,3.6045 1.1494,7.2159 1.7141,10.8272 18.2335,5.2711 34.9917,14.745 50.2738,25.8579 2.7542,-4.0124 7.073,-7.0596 11.9699,-7.658 4.7063,-0.6188 9.2902,1.2855 13.2415,3.6793 9.8481,-5.087 19.22,-11.5755 26.1436,-20.3487 5.3524,-6.7468 8.8756,-15.0169 9.5352,-23.6407 0.8909,-10.7255 -2.1901,-21.3962 -6.9644,-30.9042 -3.8835,-7.8145 -9.0658,-14.8875 -14.6362,-21.5798 5.4139,-6.7944 10.8207,-13.5953 16.2343,-20.3831 17.2613,11.0452 33.3528,24.4162 45.3566,41.1604 8.2361,11.4668 14.4253,24.5725 16.9076,38.5215 2.6183,14.3095 1.0065,29.3127 -4.3731,42.8127 -8.9912,22.6886 -26.9733,40.5346 -46.7983,54.1234 1.1019,4.5226 1.6388,9.3991 -0.007,13.8673 -1.1764,3.6862 -3.5297,6.9302 -6.5563,9.3311 4.5295,4.7132 7.835,10.7391 8.6919,17.2749 0.9249,6.393 -0.5508,12.956 -3.4957,18.6486 18.023,7.4404 33.7742,19.3286 48.145,32.3189 14.6631,13.1941 28.3947,27.4354 43.8534,39.7182 10.5622,8.4266 21.9405,15.8876 34.2029,21.6071 2.1645,1.0032 4.3321,2.0004 6.4998,2.9982 l -0.5105,5.8697 c -3.1791,0.8144 -6.361,1.6115 -9.5601,2.327 -9.9635,2.0063 -20.2536,2.2646 -30.3191,0.9382 9.0793,11.6096 15.4927,25.198 19.1653,39.4532 3.765,13.7571 4.3792,28.0287 4.9436,42.215 l -3.2179,1.2143 c -5.2279,-7.1098 -10.3663,-14.294 -16.2187,-20.9109 -7.175,-8.1884 -15.1325,-15.69 -23.7359,-22.3551 8.8075,28.2041 11.793,58.2718 7.9166,87.5982 -1.9791,15.5131 -5.7265,30.7885 -10.8819,45.5471 -2.0084,5.6162 -4.0694,11.2127 -6.135,16.8054 l -3.7319,-0.3469 c -1.6676,-12.5124 -3.1677,-25.0784 -6.5712,-37.2634 -2.0336,-7.4945 -4.6248,-14.84 -7.8214,-21.9198 -7.5356,19.9883 -19.5667,37.9639 -33.366,54.1506 -8.3563,9.8753 -17.4269,19.097 -26.4552,28.3526 l -4.2664,-0.9751 c 3.3874,-10.4439 6.8456,-20.8686 9.7265,-31.4651 2.8769,-10.4941 5.3252,-21.1039 7.3927,-31.7886 -7.0733,8.9028 -15.2141,16.9144 -23.9672,24.1645 -1.2257,1.052 -2.4687,2.0852 -3.7114,3.1181 l -4.8645,-2.1804 c 1.5443,-7.7008 2.9667,-15.4871 2.9514,-23.3608 -14.663,17.8528 -31.4821,34.0871 -50.7158,46.9751 -9.3826,6.4202 -19.4604,11.6946 -29.7824,16.4192 l -5.3723,-2.8242 c 0.9301,-7.401 1.6594,-14.8354 1.2785,-22.3004 -0.2651,-7.3996 -1.2104,-14.772 -2.6796,-22.0286 -11.5008,13.5272 -17.9686,30.6048 -21.3758,47.8522 -1.5829,7.6748 -2.3777,15.4655 -3.1065,23.2622 l -5.0958,1.8672 c -7.67,-8.1233 -15.0679,-16.5127 -21.4776,-25.6802 -7.2227,-10.0928 -13.5751,-20.791 -19.2948,-31.8087 -0.7623,9.7489 0.1369,19.4831 1.5213,29.1297 l -4.7945,2.8202 c -5.9891,-2.7593 -11.9421,-5.5976 -17.6539,-8.8943 -18.3832,-10.3986 -35.0391,-23.6336 -50.2192,-38.2629 1.1827,5.9899 3.0365,11.8154 4.7359,17.6769 l -2.7252,1.2089 c -8.8456,-7.2218 -17.7571,-14.4195 -25.2907,-23.0411 3.6637,16.9384 9.0124,33.4219 14.3569,49.8878 l -3.1473,1.6055 c -10.6237,-10.8876 -21.3347,-21.7117 -30.9532,-33.5044 -12.4733,-15.1733 -23.2532,-31.9382 -30.2106,-50.3691 -6.3181,13.9357 -10.1744,28.891 -12.3236,44.0099 -0.7171,5.0981 -1.4037,10.1991 -2.1007,15.2994 l -3.7375,0.0856 c -3.625,-9.7769 -7.346,-19.5222 -10.1988,-29.5585 -7.1886,-24.9126 -10.0315,-51.1509 -7.59,-77.002 1.3535,-14.7039 4.373,-29.238 8.7871,-43.3299 -8.6443,6.7196 -16.6561,14.2552 -23.8652,22.4913 -5.9363,6.7203 -11.1328,14.0289 -16.4489,21.2366 l -2.9239,-1.137 c 0.4941,-11.9183 0.8391,-23.8842 3.3154,-35.5924 3.3123,-16.8126 10.1948,-33.0262 20.7978,-46.5469 -7.4948,0.9933 -15.1053,1.0883 -22.6137,0.2654 -5.6148,-0.5718 -11.0826,-1.9146 -16.5328,-3.3359 l -0.803,-6.2356 c 8.5385,-3.9087 16.977,-8.0592 24.8102,-13.2599 21.7296,-13.9898 39.5076,-32.9443 58.544,-50.2056 14.5885,-13.2485 30.5572,-25.4497 48.9067,-32.9921 -2.9313,-5.6994 -4.4275,-12.2488 -3.5028,-18.6418 0.7415,-5.7061 3.3735,-11.0316 7.0189,-15.4454 -5.067,-2.4347 -8.7872,-7.2431 -10.1064,-12.6774 -1.1426,-4.0668 -0.4827,-8.3449 0.4351,-12.3845 -10.9429,-7.4812 -21.1377,-16.1527 -29.7479,-26.2591 -12.0787,-14.0918 -20.825,-31.5572 -22.3619,-50.233 -1.6867,-18.3765 3.8086,-36.8756 13.4934,-52.4092 z M 730.819,144.9397 c -1.5985,1.9927 -3.1898,3.9923 -4.7744,5.9919 8.7327,11.6299 15.7448,24.9531 18.0366,39.4463 1.8499,11.283 0.2517,23.1579 -4.9173,33.3868 2.7408,4.8897 6.1756,9.4263 10.4329,13.0989 7.5765,6.6855 17.6624,9.875 27.6327,10.3853 6.1688,-16.4725 5.2506,-35.1823 -1.7475,-51.2397 -9.0797,-21.2057 -26.0485,-37.9706 -44.663,-51.0695 z m -308.4707,29.9591 c 3.9243,7.0186 11.7525,11.0381 19.6688,11.2079 2.9993,-12.854 9.3583,-24.6878 17.2681,-35.1751 -1.5846,-1.9996 -3.1831,-3.9924 -4.7744,-5.9919 -12.0243,8.4404 -23.1579,18.3087 -32.1625,29.9591 z m -18.39,49.5728 c 0.0136,15.4114 5.883,30.3469 14.8127,42.7521 4.3121,-1.7413 8.4878,-3.8361 12.378,-6.3864 9.8139,-6.3182 17.445,-15.8057 21.7568,-26.6264 -8.5354,-10.4329 -13.1465,-24.0009 -12.3372,-37.4944 -9.4876,-0.4964 -18.8391,-4.822 -24.7085,-12.4053 -7.3587,12.0382 -12.0447,25.9532 -11.9018,40.1604 z m 174.2167,0.9389 c -5.7741,37.195 -9.7866,74.8391 -8.3925,112.5241 8.3588,6.4065 16.8599,12.6229 25.2864,18.9343 8.3994,-6.3049 16.8463,-12.5414 25.2324,-18.8663 1.4621,-37.7053 -2.6119,-75.3698 -8.3588,-112.5853 -11.2556,-0.0273 -22.5117,-0.0139 -33.7675,-0.007 z m 122.243,32.9238 c 1.0406,7.9373 3.5232,15.7584 7.8009,22.5595 5.2844,8.515 13.2146,15.1733 22.0967,19.696 16.8463,-11.1334 32.5094,-25.0486 42.262,-42.99 -6.6853,-0.7888 -13.2959,-2.5231 -19.3286,-5.5428 -8.3313,-4.0808 -15.323,-10.5962 -20.4917,-18.254 -8.5286,10.7254 -20.1311,18.5465 -32.3393,24.5313 z m -185.9216,8.5422 c -1.0746,11.8205 -4.1485,23.5998 -10.1812,33.8902 -6.0735,10.5823 -15.0508,19.3014 -25.3205,25.8032 26.606,-0.007 53.2185,0 79.8245,-0.007 -0.2922,-29.8908 2.5776,-59.7203 6.7536,-89.2916 -18.7439,6.4338 -35.733,17.1864 -51.0764,29.605 z m 110.0418,-29.605 c 4.1692,29.5713 7.0461,59.4008 6.7535,89.2916 25.0144,0.007 50.029,0 75.0433,0.007 -10.5758,-6.6855 -19.7708,-15.7513 -25.8579,-26.7353 -6.3383,-11.2422 -9.2631,-24.1234 -9.8819,-36.9433 -14.017,-10.6574 -29.3332,-19.9069 -46.057,-25.6198 z m -163.6481,5.3458 c -7.0662,14.9825 -20.0018,26.7622 -35.1411,33.2912 1.5234,1.7003 3.1011,3.3529 4.6925,4.9921 6.1348,-2.4077 11.9838,-5.5973 17.1456,-9.6984 8.1273,-6.3797 14.228,-15.1325 17.8869,-24.7626 -1.5573,-1.2447 -3.0874,-2.5166 -4.5839,-3.8223 z m 13.6228,10.0384 c -6.5427,16.071 -19.5939,29.0882 -35.3659,36.1749 5.0193,4.244 10.3785,8.0659 15.8196,11.7524 7.039,-3.5164 13.432,-8.4334 18.4377,-14.5273 6.495,-7.8417 10.2288,-17.6896 11.5075,-27.7279 -3.5504,-1.7345 -7.0189,-3.6318 -10.3989,-5.6721 z m 21.4642,2.2104 c -0.8025,13.2418 -5.1758,26.4424 -13.4459,36.923 -7.0324,9.0657 -16.6694,15.8128 -27.0547,20.5188 -1.1154,4.7472 1.9112,10.7867 7.2091,10.8817 12.9492,-5.7943 24.7901,-14.9148 32.0604,-27.2653 6.5903,-11.0654 9.2767,-24.0897 9.3175,-36.8621 -0.7821,-3.3392 -4.8016,-5.883 -8.0864,-4.1961 z m 185.2756,5.6517 c 0.2381,8.7392 1.5913,17.5196 4.6927,25.7216 6.1005,16.9279 20.3896,29.7822 36.5967,36.9026 5.3184,0.1159 8.4742,-6.1141 7.2975,-10.8545 -10.9837,-4.9306 -21.0903,-12.2352 -28.2109,-22.0422 -7.5697,-10.2356 -11.4804,-22.8245 -12.3101,-35.4475 -3.7065,-1.7615 -8.5422,1.7002 -8.0659,5.72 z M 458.7885,350.231 c -0.3875,4.7131 1.2924,9.3379 3.7746,13.2757 24.253,2.7409 48.6009,4.5635 72.976,5.7062 64.0185,2.8633 128.289,1.3532 192.0019,-5.7062 2.353,-3.7338 3.992,-8.0659 3.822,-12.5413 -0.129,-5.2503 -2.8021,-10.1676 -6.5563,-13.7245 -31.2579,0.0817 -62.5087,0.0204 -93.7599,0.0269 -0.1156,2.1085 -0.2041,4.2101 -0.2922,6.3185 -11.9293,8.8755 -23.7903,17.846 -35.7809,26.6397 -11.8202,-8.9433 -23.756,-17.7438 -35.617,-26.6397 -0.0953,-2.1014 -0.1976,-4.203 -0.279,-6.2978 -31.2715,-0.0408 -62.5498,0.0204 -93.8214,-0.034 -3.5229,3.4277 -6.148,7.998 -6.4678,12.9765 z m 5.7946,35.9095 c 17.5606,-3.1419 35.4067,-4.8013 53.2528,-4.5904 26.0685,0.3399 52.5858,4.7268 76.0295,16.5742 16.3703,-7.6717 34.0324,-12.3032 51.8853,-14.8876 26.3342,-3.693 53.4022,-3.0946 79.3622,2.8497 -0.2041,-3.8222 -0.4148,-7.6445 -0.6257,-11.4599 -21.8724,2.3601 -43.8264,4.0263 -65.8009,5.1077 -64.4471,3.081 -129.1527,1.6935 -193.3279,-5.1349 -0.2653,3.8494 -0.5168,7.6921 -0.7753,11.5412 z m -71.6972,37.1546 c -15.0438,14.2892 -30.6593,28.2314 -48.5802,38.848 27.6701,0.5677 47.6742,-15.0404 71.4183,-27.5378 -11.7184,10.2424 -23.4365,20.4852 -35.1615,30.7341 -8.4265,7.3522 -15.6155,16.1595 -20.9406,26.0076 -5.7198,10.4805 -9.3107,22.0286 -11.2422,33.7878 7.9911,-8.8344 16.819,-16.9075 26.3678,-24.0216 8.1817,-6.1549 17.0096,-11.3579 25.6059,-16.8868 -2.1421,5.4269 -4.3185,10.8408 -6.4539,16.268 -5.4343,13.8268 -9.4878,28.211 -11.8272,42.8879 -4.4071,27.1363 -2.6048,55.1432 4.543,81.654 1.7411,-6.9373 3.8631,-13.7858 6.4883,-20.4376 4.0195,-10.6503 9.8617,-20.4508 15.5202,-30.285 2.2986,8.1204 4.2097,16.37 7.2703,24.2526 7.3588,19.4239 19.2813,36.7736 32.8221,52.3888 -3.4005,-12.7927 -6.0732,-25.7692 -8.3789,-38.7935 -7.4744,-14.6291 -12.1468,-30.6457 -13.7384,-47.0024 -3.0059,-29.5574 2.3397,-59.2444 10.358,-87.6254 1.0205,-8.2973 1.884,-16.6286 3.1491,-24.8987 0.4081,-1.4281 -0.5304,-2.6796 -1.0336,-3.9311 -9.4467,-21.1856 -7.4199,-46.7167 4.5023,-66.5079 -19.1248,10.6915 -34.8695,26.1774 -50.6888,41.099 z m 353.6367,-41.1262 c 7.3863,12.4733 11.1878,27.0887 10.3921,41.5888 -0.415,9.6168 -3.0807,19.0023 -7.0256,27.7415 0.7415,5.2371 1.2994,10.5146 2.1563,15.7445 9.46,28.3538 15.8054,58.5031 12.3029,88.496 -1.6458,14.1122 -5.5633,27.9867 -11.8542,40.7386 -1.0746,2.1082 -0.9453,4.5635 -1.3807,6.842 -2.3599,16.0503 -5.6039,31.972 -9.7254,47.662 11.3643,-13.1601 21.6139,-27.4629 28.9726,-43.2822 5.1347,-10.6027 8.066,-22.0558 11.1265,-33.3799 5.7946,10.0454 11.7457,20.0769 15.7989,30.9926 2.5779,6.2436 4.1692,12.8543 6.3114,19.2336 2.4417,-9.0045 4.2032,-18.1927 5.3595,-27.449 3.6385,-28.6123 0.4691,-57.9591 -8.6579,-85.2928 -3.0674,-9.3583 -6.9849,-18.4039 -10.5418,-27.5782 8.7191,5.6109 17.6763,10.8816 25.96,17.1453 9.4195,7.0529 18.1247,15.044 26.0141,23.7631 -3.3395,-21.7227 -13.3914,-42.6495 -29.7278,-57.5713 -12.473,-11.0858 -25.1161,-21.9813 -37.6577,-32.9919 23.711,12.5209 43.8469,28.1361 71.4527,27.5715 -19.6215,-11.6093 -36.4065,-27.2248 -52.831,-42.8741 -14.3912,-13.6227 -29.0543,-27.3472 -46.4449,-37.1001 z m -302.4992,42.9897 c 0.993,12.2624 5.849,24.1373 13.6092,33.6722 -1.6662,-10.1608 -0.3742,-20.4713 1.809,-30.4348 -4.176,-12.6975 -7.8825,-25.8443 -7.4474,-39.3579 -6.1209,10.9089 -9.059,23.6336 -7.9708,36.1205 z m 294.0931,-36.1072 c 0.4351,13.5071 -3.2851,26.64 -7.4404,39.3446 2.1697,9.9771 3.4821,20.3015 1.7887,30.4623 7.6172,-9.379 12.4597,-20.9951 13.5615,-33.0398 1.2447,-12.691 -1.6733,-25.6742 -7.9098,-36.7671 z m -275.1248,8.284 c 1.2788,14.5681 7.2023,28.0953 11.3647,41.9695 0.1973,0.8161 0.8637,1.3943 1.4009,2.02 3.6456,3.9106 7.6717,7.4539 11.9497,10.6642 -1.1222,-5.815 0.5304,-11.6028 1.2921,-17.343 4.7607,3.4889 9.2973,7.3384 14.4864,10.2087 6.5767,3.7608 13.8606,6.0937 21.2397,7.6986 12.657,2.6728 25.5586,4.4887 37.787,8.8688 0.9521,-6.1688 4.3665,-11.7728 9.0864,-15.7989 0.0202,-11.2966 -0.007,-22.6001 0.0202,-33.897 -7.5493,-2.0673 -15.588,-2.5571 -23.2461,-0.8226 -9.2971,2.0129 -17.6964,6.9166 -25.0211,12.854 -2.2581,-2.7612 -4.5162,-5.5227 -6.7672,-8.2908 5.332,-4.3526 11.147,-8.1204 17.4039,-11.0041 -0.4283,-0.9929 -0.8433,-1.9723 -1.258,-2.9585 -12.888,1.1086 -25.1847,6.1143 -35.9439,13.1533 -1.9519,-2.9922 -3.9175,-5.9779 -5.8422,-8.9841 9.3586,-6.114 19.7028,-10.7592 30.6048,-13.303 -19.6276,-0.6188 -39.2896,1.2923 -58.5573,4.9649 z m 200.6867,-5.2302 c 12.242,2.5166 23.8516,7.6445 34.2845,14.4728 -1.9451,2.9926 -3.8903,5.9851 -5.8422,8.9709 -10.9497,-7.1414 -23.3413,-12.3373 -36.3994,-13.8269 -0.6191,1.4488 -1.2311,2.9041 -1.8227,4.3662 6.012,2.9177 11.6093,6.6518 16.7851,10.8683 -2.2581,2.7613 -4.5091,5.5293 -6.7672,8.2905 -7.0117,-5.6854 -14.9147,-10.4737 -23.6474,-12.956 -7.903,-2.3057 -16.35,-2.4687 -24.382,-0.7549 0.0275,11.3239 -0.0612,22.6477 0.0409,33.9648 4.7676,4.407 8.4946,10.2152 9.161,16.8122 8.3928,-3.1218 17.1184,-5.2506 25.9055,-6.9236 11.1946,-2.1696 22.7223,-3.8764 32.9854,-9.127 5.8354,-2.8292 10.8884,-6.9236 16.037,-10.7935 1.605,5.237 3.9852,10.5486 2.8973,16.1595 4.2981,-3.3188 8.3854,-6.9304 12.0311,-10.9636 0.9861,-1.0539 1.1015,-2.5707 1.5845,-3.8627 4.0468,-12.9016 9.3107,-25.6062 10.5758,-39.1882 -20.6413,-5.3863 -42.1804,-6.8144 -63.4272,-5.5088 z m -81.3614,14.0851 c -0.0476,14.9967 0.0884,29.9999 -0.068,45.0028 -3.9991,2.3601 -7.7057,5.8218 -8.8416,10.4876 -1.3804,5.0871 0.9454,10.5347 4.8697,13.8402 8.6102,7.3859 22.7225,7.3111 31.2103,-0.2381 3.8562,-3.3803 6.0191,-8.8821 4.5158,-13.9218 -1.2172,-4.5703 -4.9373,-7.8554 -8.8143,-10.2561 -0.0272,-14.9828 0,-29.9656 -0.0133,-44.9418 -3.2443,1.2991 -6.495,2.5979 -9.7257,3.931 -0.8025,0.2177 -1.6526,0.9386 -2.4891,0.4286 -3.5569,-1.4283 -7.0937,-2.9041 -10.6438,-4.3324 z m -114.7481,42.0582 c -0.1633,13.6564 5.0669,27.2313 14.3367,37.2563 5.679,6.5835 14.2753,10.6234 23.0015,10.4533 8.0592,-0.1292 16.3837,-3.2442 21.6748,-9.4875 2.8157,2.1764 5.6381,4.3525 8.4538,6.5494 -3.2511,4.108 -7.5762,7.2023 -12.2216,9.5556 -0.0136,0.0748 -0.0408,0.2177 -0.0544,0.2925 2.0404,1.8023 4.2916,3.4005 6.7263,4.6316 4.2574,0.5167 8.5966,0.2789 12.8611,-0.1565 12.3233,-1.3604 23.7968,-6.461 35.9028,-8.8209 8.3041,-1.7073 16.8533,-1.8501 25.2799,-1.2174 18.4513,1.4825 35.4197,11.6705 54.2183,10.3512 2.9721,-1.51 5.6925,-3.4959 8.0728,-5.8286 -4.1012,-2.2376 -7.869,-5.1415 -10.7867,-8.8075 2.8091,-2.1969 5.6313,-4.373 8.4469,-6.5563 5.5837,6.5767 14.4797,9.6985 22.9607,9.4808 8.6238,-0.1973 16.8667,-4.5295 22.3551,-11.1061 8.9164,-9.9431 13.8878,-23.2325 13.752,-36.5834 -4.7472,5.074 -9.9703,9.7121 -15.6835,13.684 -9.6982,6.876 -20.8383,11.2286 -31.4209,16.4993 4.9444,-7.8211 10.2968,-15.3907 14.942,-23.3955 -9.889,5.3048 -20.9203,7.8415 -31.8836,9.8207 -12.0447,2.1968 -24.171,4.7676 -35.386,9.8274 -2.1492,3.9994 -4.9581,7.6992 -8.6783,10.372 -9.6508,7.1886 -23.1032,8.5283 -34.1892,4.0396 -7.1821,-2.8769 -13.4322,-8.4535 -16.3292,-15.724 -9.4468,-3.8359 -19.4239,-6.1209 -29.4217,-7.9711 -11.8,-2.1421 -23.7903,-4.5156 -34.4815,-10.2084 4.3254,8.0731 9.8003,15.4727 14.6495,23.2393 -6.1211,-2.9174 -12.2284,-5.8351 -18.3359,-8.78 -10.7932,-5.2912 -20.6005,-12.5754 -28.7617,-21.4098 z m 258.707,30.9313 c -1.2787,0.8093 -1.8227,2.2851 -2.6118,3.5025 -6.0937,9.9638 -14.874,18.1591 -24.9191,24.0622 -8.481,5.0533 -17.9277,8.2769 -27.5718,10.2699 -2.8358,9.6234 -5.8351,19.1926 -8.7528,28.789 -1.5372,4.924 -6.3998,7.6717 -10.9159,9.4331 -6.8488,2.6116 -14.1259,3.8426 -21.3622,4.8288 -13.7721,1.7615 -27.6871,2.2102 -41.5616,1.9724 -12.5549,-0.279 -25.1232,-1.1087 -37.508,-3.2307 -6.3862,-1.1764 -12.8404,-2.5503 -18.6962,-5.4408 -3.5365,-1.7614 -6.9644,-4.5635 -7.8823,-8.583 -2.5642,-9.4195 -5.1282,-18.8459 -7.6853,-28.2654 -21.2805,-4.3662 -41.2421,-17.2273 -51.9469,-36.413 -4.7948,-3.761 -9.6304,-7.5833 -13.5952,-12.2624 -8.1003,24.4023 -13.9153,49.818 -14.745,75.594 -0.7412,23.389 3.6046,47.4514 15.6629,67.7526 4.3801,7.2366 9.331,14.2824 15.4862,20.111 -0.0136,-6.1348 0.8365,-12.2284 1.2852,-18.3357 6.0531,6.3111 11.9974,12.7452 18.3427,18.7847 15.6357,15.0032 32.9582,28.4147 52.1646,38.5622 -0.4422,-7.1617 -0.3334,-14.3504 0.3603,-21.4917 0.9521,-10.5075 3.4551,-20.791 5.3728,-31.1488 2.9313,6.5086 5.788,13.0513 8.7667,19.5463 8.9161,19.2742 19.7708,37.7666 33.3728,54.123 3.1286,-20.029 9.6441,-40.0178 22.0833,-56.2722 4.8493,-6.5631 10.9701,-11.9974 16.9892,-17.4515 4.8901,17.1521 8.3721,34.9234 7.4404,52.8375 21.92,-11.3987 41.1806,-27.449 57.6258,-45.7985 9.0045,-9.889 16.8803,-20.7026 24.8241,-31.4348 1.0811,10.7458 2.6181,21.5053 2.1081,32.3325 11.8341,-11.827 21.6751,-25.8032 27.8643,-41.3983 6.8213,-16.9551 9.1474,-35.4881 8.1272,-53.6675 -1.2175,-22.0354 -6.8011,-43.5812 -14.085,-64.3246 -4.1216,4.89 -8.8144,9.3107 -14.0375,13.0172 z m -167.1778,35.6718 c 8.8413,2.9993 18.1452,4.4682 27.449,5.019 14.5205,0.7345 29.306,-0.6324 43.0986,-5.4204 -9.705,-2.8225 -19.41,-6.1957 -29.5983,-6.6651 -5.2231,-0.1633 -10.4805,-0.2174 -15.6628,0.5511 -8.6443,1.224 -16.9143,4.1281 -25.2865,6.5154 z m -30.4894,4.2573 c 2.2309,7.7738 4.0467,15.6969 6.5222,23.3754 4.8629,3.3803 10.916,4.3461 16.5949,5.5567 19.7705,3.4141 39.9563,3.8424 59.9584,2.9243 10.8681,-0.6597 21.818,-1.5914 32.3459,-4.4955 2.8156,-0.9383 5.9442,-1.7138 8.1207,-3.8492 2.5299,-7.8962 4.8625,-15.8604 7.3111,-23.7767 -14.4797,6.6379 -30.3534,9.5689 -46.1183,11.0721 -17.0776,1.5098 -34.3525,1.0948 -51.3142,-1.4689 -11.4463,-1.7886 -22.8381,-4.5365 -33.4207,-9.3382 z m 56.7958,-269.8265 c 3.2919,-2.7476 6.6042,-5.4751 9.9094,-8.2023 3.3054,2.734 6.6174,5.4547 9.9093,8.2023 -3.3123,2.7136 -6.6039,5.4613 -9.9093,8.1817 -3.3052,-2.7272 -6.6039,-5.4613 -9.9094,-8.1817 z m 0,30.6389 c 3.3055,-2.7273 6.6042,-5.4613 9.9094,-8.1885 3.3054,2.7204 6.6038,5.4612 9.9093,8.1817 -3.2919,2.7476 -6.6039,5.468 -9.9093,8.202 -3.3052,-2.7272 -6.6175,-5.4544 -9.9094,-8.1952 z m 0,37.6577 c 3.2987,-2.7411 6.5974,-5.4749 9.9094,-8.1956 3.3054,2.7275 6.6106,5.4545 9.9093,8.1888 -3.2987,2.734 -6.6039,5.468 -9.9093,8.1952 -3.3052,-2.7272 -6.6107,-5.4612 -9.9094,-8.1884 z" />
    <path
       id="path68"
       style="fill:#f07c00;fill-rule:evenodd"
       d="m 721.1194,461.0665 c -17.0416,15.5483 -27.3699,24.8717 -53.3254,29.3728 5.3238,3.8552 12.1091,5.673 18.6478,5.5052 8.6238,-0.1973 16.8667,-4.5295 22.3551,-11.1061 6.0353,-6.7303 10.2626,-14.9939 12.3225,-23.7719 z m -57.9192,25.6152 c -0.7222,-1.726 -0.5893,-3.7428 0.2517,-5.9935 -21.1555,1.97 -37.097,7.6957 -44.6167,19.4879 12.8455,3.4358 25.4069,8.4279 38.9129,7.48 2.9721,-1.51 5.6925,-3.4959 8.0728,-5.8286 -4.1012,-2.2376 -7.869,-5.1415 -10.7867,-8.8075 2.7156,-2.1237 5.4436,-4.2282 8.166,-6.3383 z m -92.2615,13.5635 c -9.4909,2.5549 -18.7716,6.014 -28.5916,7.098 -4.2645,0.4354 -8.6037,0.6732 -12.8611,0.1565 -2.4347,-1.2311 -4.6859,-2.8293 -6.7263,-4.6316 0.0136,-0.0748 0.0408,-0.2177 0.0544,-0.2925 4.6454,-2.3533 8.9705,-5.4476 12.2216,-9.5556 -2.8077,-2.1906 -5.622,-4.3605 -8.4297,-6.531 0.635,-1.6827 0.4819,-3.6332 -0.328,-5.8008 21.197,1.974 37.1594,7.7181 44.6607,19.557 z m -48.7289,-9.7582 c -4.97,3.5699 -11.2119,5.3733 -17.3027,5.4711 -8.7262,0.1701 -17.3225,-3.8698 -23.0015,-10.4533 -6.2365,-6.7445 -10.6443,-15.0956 -12.8117,-23.9976 16.8148,15.3383 27.2058,24.5396 53.1159,28.9798 z" />
    <path
       id="path70"
       style="fill:#f07c00;fill-rule:evenodd"
       d="m 803.8939,429.5574 c -14.8822,-7.5206 -28.7819,-14.9582 -38.9118,-15.7952 10.0749,6.9216 21.1848,18.5337 30.7772,32.8073 -7.0135,-3.9124 -14.0408,-8.1045 -21.4135,-11.9979 9.9502,8.7355 19.9644,17.3988 29.907,26.1419 4.4475,8.345 8.244,17.2591 11.0077,26.4416 -14.5374,-14.4232 -28.1642,-26.8364 -45.193,-32.8895 18.7024,34.2133 28.3739,72.3895 27.1902,111.1717 -4.4779,-13.6511 -10.6872,-24.4168 -18.6259,-32.2986 -1.4641,33.3556 -12.0764,60.2541 -29.4829,82.357 0.7115,-4.049 1.3663,-8.1082 1.9645,-12.1754 0.4354,-2.2785 0.3061,-4.7338 1.3807,-6.842 6.2909,-12.7519 10.2084,-26.6264 11.8542,-40.7386 3.5025,-29.9929 -2.8429,-60.1422 -12.3029,-88.496 -0.8569,-5.2299 -1.4148,-10.5074 -2.1563,-15.7445 3.9449,-8.7392 6.6106,-18.1247 7.0256,-27.7415 0.7957,-14.5001 -3.0058,-29.1155 -10.3921,-41.5888 17.3906,9.7529 32.0537,23.4774 46.4449,37.1001 3.6158,3.4453 7.249,6.8888 10.9264,10.2884 z" />
    <path
       id="path72"
       style="fill:#f07c00;fill-rule:evenodd"
       d="m 427.3679,193.4161 c -3.3463,23.2075 -0.6826,44.174 11.1484,61.7221 -2.2859,2.1022 -4.7489,4.0133 -7.3673,5.6991 -3.8902,2.5503 -8.0659,4.6451 -12.378,6.3864 -8.9297,-12.4052 -14.7991,-27.3407 -14.8127,-42.7521 -0.1429,-14.2072 4.5431,-28.1222 11.9018,-40.1604 3.0515,3.9424 7.0441,7.0039 11.5078,9.1049 z m 31.443,82.154 c 4.6228,3.3032 9.7954,6.4015 15.5577,9.2798 -0.3146,0.4067 -0.6358,0.809 -0.9643,1.2058 -5.0057,6.0939 -11.3987,11.0109 -18.4377,14.5273 -5.4411,-3.6865 -10.8003,-7.5084 -15.8196,-11.7524 7.253,-3.259 13.93,-7.7729 19.6639,-13.2605 z" />
  </g>
</svg>
